<svg width="137" height="26" viewBox="0 0 137 26" fill="none" xmlns="http://www.w3.org/2000/svg">
<rect y="4.33325" width="87.7504" height="21.6668" fill="#2D2F60"/>
<path d="M11.8475 15.4051V18.9931C11.5182 19.2011 11.0805 19.3701 10.5345 19.5001C9.99719 19.6301 9.39052 19.6951 8.71452 19.6951C7.76118 19.6951 6.95518 19.4828 6.29651 19.0581C5.63784 18.6335 5.14383 18.0701 4.8145 17.3681C4.49383 16.6661 4.3335 15.8991 4.3335 15.0671C4.3335 14.2351 4.5025 13.4724 4.8405 12.7791C5.18717 12.0858 5.6985 11.5311 6.37451 11.1151C7.05918 10.6991 7.89118 10.4911 8.87052 10.4911C9.45985 10.4911 10.0145 10.5908 10.5345 10.7901C11.0545 10.9894 11.4879 11.2711 11.8345 11.6351L11.3535 12.2851C11.0762 11.9818 10.7122 11.7391 10.2615 11.5571C9.81086 11.3751 9.34719 11.2841 8.87052 11.2841C8.12518 11.2841 7.48818 11.4488 6.95951 11.7781C6.43084 12.1074 6.02784 12.5624 5.7505 13.1431C5.48184 13.7151 5.3475 14.3608 5.3475 15.0801C5.3475 15.8168 5.4775 16.4755 5.7375 17.0561C5.9975 17.6281 6.37884 18.0831 6.88151 18.4211C7.38418 18.7505 7.99518 18.9151 8.71452 18.9151C9.54652 18.9151 10.2659 18.8068 10.8725 18.5901V15.4051H11.8475Z" fill="white"/>
<path d="M17.0201 15.4961H15.3691V19.5001H14.3551V10.6601H17.2281C18.1901 10.6601 18.9268 10.8768 19.4381 11.3101C19.9495 11.7434 20.2051 12.3241 20.2051 13.0521C20.2051 13.6848 20.0231 14.2048 19.6591 14.6121C19.3038 15.0108 18.7795 15.2664 18.0861 15.3791L21.0372 19.5001H19.8671L17.0201 15.4961ZM15.3691 14.7161H17.2281C18.5368 14.7161 19.1911 14.1701 19.1911 13.0781C19.1911 12.5668 19.0221 12.1681 18.6841 11.8821C18.3461 11.5874 17.8608 11.4401 17.2281 11.4401H15.3691V14.7161Z" fill="white"/>
<path d="M27.5619 16.6401H23.9218L22.8558 19.5001H21.8548L25.2869 10.5431H26.2099L29.6549 19.5001H28.6279L27.5619 16.6401ZM27.2629 15.8601L25.7419 11.7781L24.2078 15.8601H27.2629Z" fill="white"/>
<path d="M38.4114 10.6601V19.5001L37.5404 19.5131L32.3924 12.3371L32.4444 15.4571V19.5001H31.4304V10.6601H32.2884L37.4364 17.8491L37.3974 14.3131V10.6601H38.4114Z" fill="white"/>
<path d="M44.3866 10.6601C45.2879 10.6601 46.0549 10.8508 46.6876 11.2321C47.3289 11.6134 47.8099 12.1378 48.1306 12.8051C48.4513 13.4724 48.6116 14.2264 48.6116 15.0671C48.6116 15.9338 48.4513 16.7008 48.1306 17.3681C47.8099 18.0355 47.3333 18.5598 46.7006 18.9411C46.0679 19.3138 45.2966 19.5001 44.3866 19.5001H41.3836V10.6601H44.3866ZM44.3866 18.7201C45.4093 18.7201 46.2023 18.3951 46.7656 17.7451C47.3289 17.0865 47.6106 16.1981 47.6106 15.0801C47.6106 13.9794 47.3289 13.0998 46.7656 12.4411C46.2023 11.7738 45.4093 11.4401 44.3866 11.4401H42.3976V18.7201H44.3866Z" fill="white"/>
<path d="M59.1617 10.6601V19.5001H58.1607V16.2891L58.1997 12.3371L55.3266 16.5361H54.6766L51.8036 12.3241L51.8426 16.2891V19.5001H50.8416V10.6601H51.7256L55.0016 15.4441L58.2777 10.6601H59.1617Z" fill="white"/>
<path d="M62.1405 10.6601H63.1545V19.5001H62.1405V10.6601Z" fill="white"/>
<path d="M73.1079 10.6601V19.5001L72.2369 19.5131L67.0889 12.3371L67.1409 15.4571V19.5001H66.1269V10.6601H66.9849L72.1329 17.8491L72.0939 14.3131V10.6601H73.1079Z" fill="white"/>
<path d="M79.083 10.6601C79.9844 10.6601 80.7514 10.8508 81.3841 11.2321C82.0254 11.6134 82.5064 12.1378 82.8271 12.8051C83.1477 13.4724 83.3081 14.2264 83.3081 15.0671C83.3081 15.9338 83.1477 16.7008 82.8271 17.3681C82.5064 18.0355 82.0297 18.5598 81.3971 18.9411C80.7644 19.3138 79.993 19.5001 79.083 19.5001H76.08V10.6601H79.083ZM79.083 18.7201C80.1057 18.7201 80.8987 18.3951 81.4621 17.7451C82.0254 17.0865 82.3071 16.1981 82.3071 15.0801C82.3071 13.9794 82.0254 13.0998 81.4621 12.4411C80.8987 11.7738 80.1057 11.4401 79.083 11.4401H77.094V18.7201H79.083Z" fill="white"/>
<path d="M96.66 19.7623C95.6633 19.7623 94.8227 19.5543 94.138 19.1383C93.4533 18.7137 92.9377 18.1503 92.591 17.4483C92.253 16.7463 92.084 15.9793 92.084 15.1473C92.084 14.324 92.2617 13.5656 92.617 12.8723C92.9723 12.1703 93.5053 11.6113 94.216 11.1953C94.9353 10.7793 95.802 10.5713 96.816 10.5713C97.3707 10.5713 97.895 10.658 98.389 10.8313C98.8917 10.996 99.3164 11.2256 99.663 11.5203L99.182 12.5343C98.9047 12.283 98.558 12.0793 98.142 11.9233C97.726 11.7673 97.284 11.6893 96.816 11.6893C96.1313 11.6893 95.542 11.841 95.048 12.1443C94.5627 12.4476 94.1943 12.8636 93.943 13.3923C93.6917 13.9123 93.566 14.5016 93.566 15.1603C93.566 15.8276 93.683 16.4257 93.917 16.9543C94.1597 17.483 94.5107 17.899 94.97 18.2023C95.438 18.5057 96.0013 18.6573 96.66 18.6573C97.6653 18.6573 98.5537 18.3063 99.325 17.6043L99.767 18.5923C99.377 18.939 98.9177 19.2207 98.389 19.4373C97.8603 19.654 97.284 19.7623 96.66 19.7623Z" fill="#474973"/>
<path d="M106.39 17.0063H102.984L102.061 19.5803H100.579L103.998 10.6233H105.389L108.834 19.5803H107.313L106.39 17.0063ZM106.013 15.9403L104.687 12.2353L103.361 15.9403H106.013Z" fill="#474973"/>
<path d="M113.41 15.8493H111.889V19.5803H110.407V10.7403H113.514C114.58 10.7403 115.382 10.957 115.919 11.3903C116.456 11.8236 116.725 12.4346 116.725 13.2233C116.725 13.856 116.573 14.376 116.27 14.7833C115.967 15.182 115.512 15.4593 114.905 15.6153L117.674 19.5803H115.958L113.41 15.8493ZM111.889 14.7703H113.514C114.667 14.7703 115.243 14.2763 115.243 13.2883C115.243 12.8116 115.096 12.4476 114.801 12.1963C114.515 11.945 114.086 11.8193 113.514 11.8193H111.889V14.7703Z" fill="#474973"/>
<path d="M125.023 18.5013V19.5803H119.459V10.7403H124.763V11.8193H120.941V14.3673H124.243V15.4463H120.941V18.5013H125.023Z" fill="#474973"/>
<rect x="130.711" width="1.82813" height="9.75005" rx="0.914067" fill="#E84D7E"/>
<rect x="126.751" y="5.78918" width="1.82813" height="9.75005" rx="0.914067" transform="rotate(-90 126.751 5.78918)" fill="#E84D7E"/>
</svg>
