<svg width="34" height="32" viewBox="0 0 34 32" fill="none" xmlns="http://www.w3.org/2000/svg">
<g filter="url(#filter0_d_578_2009)">
<circle cx="16" cy="16" r="16" fill="url(#paint0_linear_578_2009)"/>
</g>
<path fill-rule="evenodd" clip-rule="evenodd" d="M14.1098 5.74365C13.0053 5.74365 12.1098 6.63908 12.1098 7.74365V12.817L7.74365 12.817C6.63908 12.817 5.74365 13.7125 5.74365 14.8171L5.74365 17.8904C5.74365 18.995 6.63908 19.8904 7.74365 19.8904H12.1098V24.2565C12.1098 25.361 13.0053 26.2565 14.1098 26.2565H17.8906C18.9951 26.2565 19.8906 25.361 19.8906 24.2565V19.8904H24.2565C25.361 19.8904 26.2565 18.995 26.2565 17.8904V14.817C26.2565 13.7125 25.361 12.817 24.2565 12.817L19.8906 12.817V7.74365C19.8906 6.63908 18.9951 5.74365 17.8906 5.74365H14.1098Z" fill="url(#paint1_linear_578_2009)"/>
<defs>
<filter id="filter0_d_578_2009" x="0" y="0" width="34" height="32" filterUnits="userSpaceOnUse" color-interpolation-filters="sRGB">
<feFlood flood-opacity="0" result="BackgroundImageFix"/>
<feColorMatrix in="SourceAlpha" type="matrix" values="0 0 0 0 0 0 0 0 0 0 0 0 0 0 0 0 0 0 127 0" result="hardAlpha"/>
<feOffset dx="2"/>
<feComposite in2="hardAlpha" operator="out"/>
<feColorMatrix type="matrix" values="0 0 0 0 0.694118 0 0 0 0 0.482353 0 0 0 0 0.541176 0 0 0 1 0"/>
<feBlend mode="normal" in2="BackgroundImageFix" result="effect1_dropShadow_578_2009"/>
<feBlend mode="normal" in="SourceGraphic" in2="effect1_dropShadow_578_2009" result="shape"/>
</filter>
<linearGradient id="paint0_linear_578_2009" x1="0.820512" y1="-3.69231" x2="30.5965" y2="32.8421" gradientUnits="userSpaceOnUse">
<stop stop-color="#EBE9E9"/>
<stop offset="1" stop-color="#43876E"/>
</linearGradient>
<linearGradient id="paint1_linear_578_2009" x1="10.695" y1="-4.86643" x2="18.4757" y2="32.6225" gradientUnits="userSpaceOnUse">
<stop stop-color="#B17B8A"/>
<stop offset="1" stop-color="#B17B8A"/>
</linearGradient>
</defs>
</svg>
