<svg width="95" height="30" viewBox="0 0 95 30" fill="none" xmlns="http://www.w3.org/2000/svg">
<path d="M44.0679 18.4126H49.4664" stroke="#E27396" stroke-width="2" stroke-linecap="round"/>
<path d="M46.7671 15.7129L46.7671 21.1118" stroke="#E27396" stroke-width="2" stroke-linecap="round"/>
<path d="M12.0577 19.1201C12.3352 19.8287 11.7326 20.5107 10.9716 20.5107C10.3603 20.5107 9.8695 20.0495 9.57336 19.5146C9.55622 19.4837 9.53853 19.4531 9.5203 19.423C9.32902 19.1027 9.09103 18.8314 8.80634 18.6089C8.52166 18.3865 8.19693 18.2197 7.83217 18.1085C7.47186 17.9928 7.08263 17.935 6.6645 17.935C5.92163 17.935 5.26329 18.1218 4.68946 18.4955C4.11563 18.8647 3.66635 19.4075 3.34163 20.1237C3.0169 20.8355 2.85454 21.7052 2.85454 22.7328C2.85454 23.7782 3.0169 24.6591 3.34163 25.3753C3.6708 26.0871 4.12008 26.6253 4.68946 26.9901C5.26329 27.3505 5.91941 27.5306 6.65782 27.5306C7.06707 27.5306 7.44962 27.4773 7.80548 27.3705C8.16579 27.2593 8.48829 27.0969 8.77298 26.8834C9.06212 26.6698 9.30455 26.4074 9.50028 26.096C9.51874 26.0672 9.53667 26.0382 9.55407 26.0087C9.86318 25.4851 10.3556 25.0307 10.9636 25.0339C11.7279 25.038 12.3226 25.728 12.0181 26.4291C11.9532 26.5786 11.8812 26.7256 11.8023 26.87C11.4953 27.4394 11.0928 27.9421 10.5946 28.3781C10.0963 28.8096 9.51362 29.1477 8.84638 29.3924C8.17914 29.6326 7.4385 29.7527 6.62446 29.7527C5.42342 29.7527 4.35139 29.4747 3.40835 28.9186C2.46531 28.3625 1.72245 27.5596 1.17976 26.5097C0.637068 25.4598 0.365723 24.2009 0.365723 22.7328C0.365723 21.2603 0.639292 20.0014 1.18643 18.9559C1.73357 17.9061 2.47866 17.1031 3.42169 16.547C4.36473 15.9909 5.43232 15.7129 6.62446 15.7129C7.38512 15.7129 8.0924 15.8197 8.74629 16.0332C9.40019 16.2467 9.98292 16.5604 10.4945 16.9741C11.006 17.3833 11.4264 17.886 11.7556 18.4822C11.8699 18.6849 11.9706 18.8975 12.0577 19.1201Z" fill="#1B1B1E"/>
<path d="M17.5189 29.7727C16.8694 29.7727 16.2845 29.6571 15.764 29.4258C15.248 29.19 14.8388 28.843 14.5363 28.3848C14.2383 27.9266 14.0892 27.3616 14.0892 26.6899C14.0892 26.1115 14.196 25.6333 14.4095 25.2552C14.623 24.877 14.9144 24.5745 15.2836 24.3477C15.6528 24.1208 16.0687 23.9495 16.5313 23.8338C16.9984 23.7137 17.4811 23.627 17.9793 23.5736C18.5798 23.5113 19.0669 23.4557 19.4405 23.4068C19.8142 23.3534 20.0855 23.2733 20.2546 23.1665C20.428 23.0553 20.5148 22.8841 20.5148 22.6527V22.6127C20.5148 22.11 20.3658 21.7207 20.0677 21.4449C19.7697 21.1691 19.3404 21.0312 18.78 21.0312C18.1883 21.0312 17.719 21.1602 17.3721 21.4182C17.3146 21.4615 17.2602 21.5062 17.209 21.5521C16.7968 21.9218 16.2815 22.2761 15.7332 22.1982C15.0405 22.0999 14.5779 21.3895 14.989 20.8233C15.0849 20.6912 15.1898 20.567 15.3036 20.4507C15.7129 20.028 16.2133 19.7122 16.8049 19.5031C17.3965 19.2896 18.0504 19.1828 18.7666 19.1828C19.2604 19.1828 19.7519 19.2406 20.2412 19.3563C20.7305 19.472 21.1776 19.6633 21.5824 19.9302C21.9872 20.1926 22.3119 20.5508 22.5566 21.0045C22.8057 21.4583 22.9302 22.0255 22.9302 22.7061V28.4049C22.9302 29.0461 22.4104 29.5659 21.7692 29.5659C21.128 29.5659 20.6082 29.0461 20.6082 28.4049V28.1579H20.5281C20.3813 28.4426 20.1745 28.7095 19.9076 28.9586C19.6451 29.2033 19.3138 29.4013 18.9134 29.5525C18.5175 29.6993 18.0527 29.7727 17.5189 29.7727ZM18.1461 27.9977C18.6309 27.9977 19.0513 27.9021 19.4072 27.7108C19.763 27.5151 20.0366 27.2571 20.2279 26.9368C20.4236 26.6165 20.5215 26.2672 20.5215 25.8891V24.6813C20.4458 24.7436 20.3168 24.8014 20.1345 24.8548C19.9565 24.9082 19.7564 24.9549 19.5339 24.9949C19.3115 25.035 19.0913 25.0706 18.8734 25.1017C18.6554 25.1328 18.4664 25.1595 18.3062 25.1818C17.9459 25.2307 17.6234 25.3108 17.3387 25.422C17.054 25.5332 16.8294 25.6889 16.6648 25.8891C16.5002 26.0848 16.4179 26.3384 16.4179 26.6498C16.4179 27.0947 16.5803 27.4305 16.905 27.6574C17.2297 27.8843 17.6434 27.9977 18.1461 27.9977Z" fill="#1B1B1E"/>
<path d="M26.5667 29.5659C25.8997 29.5659 25.359 29.0252 25.359 28.3582V20.4873C25.359 19.8406 25.8833 19.3163 26.53 19.3163C27.1767 19.3163 27.701 19.8406 27.701 20.4873V21.0245H27.8078C27.9946 20.4329 28.3149 19.9769 28.7686 19.6566C29.2268 19.3318 29.7494 19.1695 30.3366 19.1695C30.4701 19.1695 30.6191 19.1761 30.7837 19.1895C31.0294 19.2024 31.204 19.4134 31.204 19.6595V20.9615C31.204 21.2045 30.9582 21.3938 30.7169 21.3649C30.499 21.3337 30.2877 21.3181 30.0831 21.3181C29.6427 21.3181 29.2468 21.4138 28.8954 21.6051C28.5484 21.7919 28.2748 22.0522 28.0747 22.3858C27.8745 22.7195 27.7744 23.1043 27.7744 23.5402V28.3582C27.7744 29.0252 27.2337 29.5659 26.5667 29.5659Z" fill="#1B1B1E"/>
<path d="M36.924 29.7661C35.8964 29.7661 35.009 29.5525 34.2617 29.1255C33.5188 28.694 32.9472 28.0845 32.5468 27.2971C32.1465 26.5052 31.9463 25.5733 31.9463 24.5011C31.9463 23.4468 32.1465 22.5215 32.5468 21.7252C32.9516 20.9244 33.5166 20.3016 34.2416 19.8568C34.9667 19.4075 35.8186 19.1828 36.7972 19.1828C37.4288 19.1828 38.0249 19.2851 38.5854 19.4898C39.1503 19.69 39.6485 20.0014 40.08 20.424C40.5159 20.8466 40.8585 21.3849 41.1076 22.0388C41.3567 22.6883 41.4812 23.4624 41.4812 24.361V25.1017H33.0806V23.4735H39.1659C39.1614 23.0108 39.0614 22.5994 38.8656 22.239C38.6699 21.8742 38.3963 21.5873 38.0449 21.3782C37.698 21.1691 37.2932 21.0646 36.8305 21.0646C36.3368 21.0646 35.9031 21.1847 35.5294 21.4249C35.1558 21.6607 34.8644 21.9721 34.6553 22.3591C34.4507 22.7417 34.3462 23.1621 34.3417 23.6203V25.0416C34.3417 25.6378 34.4507 26.1493 34.6687 26.5764C34.8866 26.999 35.1914 27.3238 35.5828 27.5507C35.9743 27.7731 36.4324 27.8843 36.9573 27.8843C37.3087 27.8843 37.6268 27.8354 37.9115 27.7375C38.1962 27.6352 38.4431 27.4862 38.6521 27.2904C39.0277 26.9388 39.4851 26.6035 39.9964 26.6609L40.049 26.6669C40.7568 26.7464 41.2479 27.4505 40.8402 28.0346C40.757 28.1537 40.666 28.2682 40.5671 28.3781C40.1712 28.8185 39.6641 29.1611 39.0458 29.4057C38.4275 29.646 37.7202 29.7661 36.924 29.7661Z" fill="#1B1B1E"/>
<path d="M7.98585 3.84219C7.92824 3.62867 7.84352 3.44058 7.73169 3.2779C7.61985 3.11183 7.4826 2.97118 7.31993 2.85595C7.15727 2.74071 6.97088 2.65429 6.76077 2.59668C6.55065 2.53567 6.32021 2.50517 6.06943 2.50517C5.56448 2.50517 5.12731 2.62718 4.75792 2.8712C4.39192 3.11522 4.10895 3.47108 3.909 3.93878C3.70906 4.40309 3.60909 4.96739 3.60909 5.63166C3.60909 6.29933 3.70567 6.86871 3.89884 7.3398C4.092 7.81089 4.37159 8.17014 4.73759 8.41755C5.10359 8.66496 5.54754 8.78866 6.06943 8.78866C6.53032 8.78866 6.92004 8.7141 7.2386 8.56498C7.56055 8.41247 7.80455 8.19725 7.9706 7.91934C8.13666 7.64143 8.21969 7.31438 8.21969 6.93818L8.68736 6.9941H6.15585V5.15888H10.6444V6.53657C10.6444 7.46859 10.4462 8.26673 10.0497 8.93101C9.65658 9.59528 9.11436 10.1053 8.42302 10.4612C7.73507 10.8171 6.94377 10.995 6.0491 10.995C5.05615 10.995 4.1835 10.7798 3.43117 10.3494C2.67883 9.91894 2.09255 9.30551 1.67233 8.50906C1.2521 7.70922 1.04199 6.76025 1.04199 5.66217C1.04199 4.8081 1.16908 4.05062 1.42324 3.38974C1.67741 2.72546 2.03155 2.16286 2.48566 1.70194C2.94317 1.24101 3.47184 0.89193 4.07167 0.654689C4.6749 0.417448 5.32387 0.298828 6.0186 0.298828C6.62182 0.298828 7.18268 0.385252 7.70119 0.558099C8.22308 0.730946 8.68397 0.974965 9.08386 1.29016C9.48714 1.60535 9.81417 1.97985 10.0649 2.41366C10.3157 2.84747 10.4716 3.32365 10.5326 3.84219H7.98585Z" fill="#1B1B1E"/>
<path d="M12.7001 10.8527V0.441173H17.0006C17.7801 0.441173 18.4528 0.581823 19.0187 0.863123C19.588 1.14103 20.0269 1.54095 20.3353 2.06288C20.6437 2.58142 20.7979 3.19656 20.7979 3.90828C20.7979 4.63017 20.6403 5.24361 20.3251 5.74859C20.01 6.25018 19.5626 6.63316 18.9831 6.89751C18.4036 7.15848 17.7174 7.28896 16.9244 7.28896H14.2048V5.3063H16.4567C16.8363 5.3063 17.1531 5.25716 17.4073 5.15888C17.6648 5.0572 17.8597 4.90469 17.9919 4.70134C18.124 4.4946 18.1901 4.23025 18.1901 3.90828C18.1901 3.58631 18.124 3.32026 17.9919 3.11013C17.8597 2.89662 17.6648 2.73733 17.4073 2.63226C17.1497 2.52381 16.8329 2.46958 16.4567 2.46958H15.2164V10.8527H12.7001ZM18.5612 6.09428L21.1537 10.8527H18.4087L15.867 6.09428H18.5612Z" fill="#1B1B1E"/>
<path d="M25.0025 10.8527H22.2982L25.8108 0.441173H29.1607L32.6733 10.8527H29.969L27.5239 3.06438H27.4425L25.0025 10.8527ZM24.6416 6.75517H30.2943V8.66665H24.6416V6.75517Z" fill="#1B1B1E"/>
<path d="M43.2271 0.441173V10.8527H41.0921L36.9491 4.84368H36.883V10.8527H34.3668V0.441173H36.5323L40.6295 6.43998H40.7159V0.441173H43.2271Z" fill="#1B1B1E"/>
<path d="M49.2299 10.8527H45.3818V0.441173H49.2249C50.2856 0.441173 51.1989 0.649606 51.9648 1.06647C52.7341 1.47995 53.3271 2.07644 53.744 2.85595C54.1608 3.63206 54.3692 4.56069 54.3692 5.64183C54.3692 6.72636 54.1608 7.65838 53.744 8.43788C53.3305 9.21739 52.7392 9.81558 51.9699 10.2324C51.2006 10.6459 50.2873 10.8527 49.2299 10.8527ZM47.8981 8.70732H49.1334C49.7163 8.70732 50.2093 8.60904 50.6126 8.41247C51.0193 8.21251 51.326 7.88884 51.5327 7.44147C51.7428 6.99071 51.8479 6.39083 51.8479 5.64183C51.8479 4.89283 51.7428 4.29634 51.5327 3.85236C51.3226 3.40499 51.0125 3.08302 50.6024 2.88645C50.1958 2.68649 49.6942 2.58651 49.0978 2.58651H47.8981V8.70732Z" fill="#1B1B1E"/>
<path d="M56.4109 0.441173H59.527L62.1703 6.88735H62.2923L64.9357 0.441173H68.0518V10.8527H65.6016V4.45732H65.5152L63.0142 10.7866H61.4485L58.9475 4.42174H58.8611V10.8527H56.4109V0.441173Z" fill="#1B1B1E"/>
<path d="M72.7101 0.441173V10.8527H70.1938V0.441173H72.7101Z" fill="#1B1B1E"/>
<path d="M83.7226 0.441173V10.8527H81.5876L77.4447 4.84368H77.3786V10.8527H74.8624V0.441173H77.0279L81.125 6.43998H81.2115V0.441173H83.7226Z" fill="#1B1B1E"/>
<path d="M89.7255 10.8527H85.8774V0.441173H89.7204C90.7812 0.441173 91.6945 0.649606 92.4604 1.06647C93.2296 1.47995 93.8227 2.07644 94.2395 2.85595C94.6564 3.63206 94.8648 4.56069 94.8648 5.64183C94.8648 6.72636 94.6564 7.65838 94.2395 8.43788C93.8261 9.21739 93.2347 9.81558 92.4654 10.2324C91.6962 10.6459 90.7829 10.8527 89.7255 10.8527ZM88.3937 8.70732H89.6289C90.2118 8.70732 90.7049 8.60904 91.1082 8.41247C91.5148 8.21251 91.8215 7.88884 92.0283 7.44147C92.2384 6.99071 92.3434 6.39083 92.3434 5.64183C92.3434 4.89283 92.2384 4.29634 92.0283 3.85236C91.8182 3.40499 91.5081 3.08302 91.098 2.88645C90.6913 2.68649 90.1898 2.58651 89.5933 2.58651H88.3937V8.70732Z" fill="#1B1B1E"/>
</svg>
