<svg width="13" height="10" viewBox="0 0 13 10" fill="none" xmlns="http://www.w3.org/2000/svg">
<path fill-rule="evenodd" clip-rule="evenodd" d="M13 5C13 4.63981 12.7184 4.34783 12.371 4.34783H0.629032C0.281627 4.34783 0 4.63981 0 5C0 5.36019 0.281627 5.65217 0.629032 5.65217H12.371C12.7184 5.65217 13 5.36019 13 5Z" fill="black"/>
<path fill-rule="evenodd" clip-rule="evenodd" d="M13 0.652174C13 0.291988 12.7184 0 12.371 0H0.629032C0.281627 0 0 0.291988 0 0.652174C0 1.01236 0.281627 1.30435 0.629032 1.30435H12.371C12.7184 1.30435 13 1.01236 13 0.652174Z" fill="black"/>
<path fill-rule="evenodd" clip-rule="evenodd" d="M13 9.34783C13 8.98764 12.7184 8.69565 12.371 8.69565H0.629032C0.281627 8.69565 0 8.98764 0 9.34783C0 9.70801 0.281627 10 0.629032 10H12.371C12.7184 10 13 9.70801 13 9.34783Z" fill="black"/>
</svg>
